<mxfile host="www.draw.io" modified="2020-07-15T03:58:03.363Z" agent="5.0 (Windows NT 10.0; WOW64) AppleWebKit/537.36 (KHTML, like Gecko) Chrome/80.0.3987.132 Safari/537.36" etag="af1PmF7dxgNMdYcH8Iv5" version="13.1.3" type="github">
  <diagram id="_ZZhRwRfdDSKz6Nqyyi-" name="第 1 页">
    <mxGraphModel dx="1422" dy="802" grid="1" gridSize="10" guides="1" tooltips="1" connect="1" arrows="1" fold="1" page="1" pageScale="1" pageWidth="827" pageHeight="1169" math="0" shadow="0">
      <root>
        <mxCell id="0" />
        <mxCell id="1" parent="0" />
        <mxCell id="C9zQ4FDbB_6z4XzigYcC-10" value="" style="edgeStyle=orthogonalEdgeStyle;rounded=0;orthogonalLoop=1;jettySize=auto;html=1;entryX=0.5;entryY=0;entryDx=0;entryDy=0;" edge="1" parent="1" source="C9zQ4FDbB_6z4XzigYcC-1" target="C9zQ4FDbB_6z4XzigYcC-8">
          <mxGeometry relative="1" as="geometry">
            <mxPoint x="300" y="260" as="targetPoint" />
          </mxGeometry>
        </mxCell>
        <mxCell id="C9zQ4FDbB_6z4XzigYcC-1" value="数据打点API接口" style="rounded=1;whiteSpace=wrap;html=1;" vertex="1" parent="1">
          <mxGeometry x="240" y="120" width="120" height="60" as="geometry" />
        </mxCell>
        <mxCell id="C9zQ4FDbB_6z4XzigYcC-5" value="" style="edgeStyle=orthogonalEdgeStyle;rounded=0;orthogonalLoop=1;jettySize=auto;html=1;entryX=0.5;entryY=0;entryDx=0;entryDy=0;" edge="1" parent="1" source="C9zQ4FDbB_6z4XzigYcC-2" target="C9zQ4FDbB_6z4XzigYcC-1">
          <mxGeometry relative="1" as="geometry">
            <mxPoint x="260" y="100" as="targetPoint" />
          </mxGeometry>
        </mxCell>
        <mxCell id="C9zQ4FDbB_6z4XzigYcC-2" value="SDK" style="rounded=0;whiteSpace=wrap;html=1;" vertex="1" parent="1">
          <mxGeometry x="60" y="70" width="120" height="60" as="geometry" />
        </mxCell>
        <mxCell id="C9zQ4FDbB_6z4XzigYcC-7" value="" style="edgeStyle=orthogonalEdgeStyle;rounded=0;orthogonalLoop=1;jettySize=auto;html=1;entryX=0;entryY=0.5;entryDx=0;entryDy=0;" edge="1" parent="1" source="C9zQ4FDbB_6z4XzigYcC-3" target="C9zQ4FDbB_6z4XzigYcC-1">
          <mxGeometry relative="1" as="geometry">
            <mxPoint x="260" y="220" as="targetPoint" />
          </mxGeometry>
        </mxCell>
        <mxCell id="C9zQ4FDbB_6z4XzigYcC-3" value="游戏服务端" style="rounded=0;whiteSpace=wrap;html=1;" vertex="1" parent="1">
          <mxGeometry x="60" y="190" width="120" height="60" as="geometry" />
        </mxCell>
        <mxCell id="C9zQ4FDbB_6z4XzigYcC-8" value="KAFKA" style="rounded=1;whiteSpace=wrap;html=1;" vertex="1" parent="1">
          <mxGeometry x="240" y="360" width="120" height="60" as="geometry" />
        </mxCell>
        <mxCell id="C9zQ4FDbB_6z4XzigYcC-12" value="" style="edgeStyle=orthogonalEdgeStyle;rounded=0;orthogonalLoop=1;jettySize=auto;html=1;" edge="1" parent="1" source="C9zQ4FDbB_6z4XzigYcC-11" target="C9zQ4FDbB_6z4XzigYcC-8">
          <mxGeometry relative="1" as="geometry" />
        </mxCell>
        <mxCell id="C9zQ4FDbB_6z4XzigYcC-11" value="导入工具" style="rounded=1;whiteSpace=wrap;html=1;" vertex="1" parent="1">
          <mxGeometry x="60" y="360" width="120" height="60" as="geometry" />
        </mxCell>
        <mxCell id="C9zQ4FDbB_6z4XzigYcC-14" value="" style="edgeStyle=orthogonalEdgeStyle;rounded=0;orthogonalLoop=1;jettySize=auto;html=1;" edge="1" parent="1" source="C9zQ4FDbB_6z4XzigYcC-13" target="C9zQ4FDbB_6z4XzigYcC-11">
          <mxGeometry relative="1" as="geometry" />
        </mxCell>
        <mxCell id="C9zQ4FDbB_6z4XzigYcC-13" value="MYSQL日志" style="shape=cylinder;whiteSpace=wrap;html=1;boundedLbl=1;backgroundOutline=1;" vertex="1" parent="1">
          <mxGeometry x="90" y="500" width="60" height="80" as="geometry" />
        </mxCell>
      </root>
    </mxGraphModel>
  </diagram>
</mxfile>
